<?xml version="1.0" encoding="UTF-8"?>
<svg id="Layer_1" xmlns="http://www.w3.org/2000/svg" version="1.1" xmlns:xlink="http://www.w3.org/1999/xlink" viewBox="0 0 20 20">
  <!-- Generator: Adobe Illustrator 29.6.1, SVG Export Plug-In . SVG Version: 2.1.1 Build 9)  -->
  <defs>
    <style>
      .st0 {
        fill: #0c2144;
      }

      .st1 {
        fill: none;
      }

      .st2 {
        fill: #f07522;
      }

      .st3 {
        clip-path: url(#clippath);
      }
    </style>
    <clipPath id="clippath">
      <rect class="st1" x="-5" y="-4.78" width="94.34" height="37.74"/>
    </clipPath>
  </defs>
  <g class="st3">
    <path class="st0" d="M17.81,9.02c-.81.39-3.43,1.65-3.61,1.75l-3.62-8.55c-.58-1.35-2.72-1.41-3.56-.04-1.99,3.94-3.91,7.8-5.72,11.76-.51,1.11-1.33,2.34-.49,3.5.6.82,1.52,1.11,2.49.81,2.96-1.26,8.95-4,11.72-5.56l-.81-1.91-11.77,5.51L8.76,3.2c.16.14,3.8,9.34,5.74,13.63.11.25.3.73.45.92.69.88,2.21.81,2.72-.2.83-1.63,1.53-4.77,2.01-6.59.35-1.29-.22-2.73-1.87-1.93M16.19,15.45c-.42-.93-.82-1.84-1.19-2.76.22-.09,2.08-1.01,2.29-1.11l-1.1,3.87Z"/>
    <path class="st2" d="M17.29,11.58l-1.1,3.87c-.42-.93-.82-1.84-1.19-2.76.22-.09,2.08-1.01,2.29-1.11"/>
  </g>
</svg>