<?xml version="1.0" encoding="UTF-8"?>
<svg id="Layer_1" xmlns="http://www.w3.org/2000/svg" version="1.1" xmlns:xlink="http://www.w3.org/1999/xlink" viewBox="0 0 20 20">
  <!-- Generator: Adobe Illustrator 29.6.1, SVG Export Plug-In . SVG Version: 2.1.1 Build 9)  -->
  <defs>
    <style>
      .st0 {
        fill: none;
      }

      .st1 {
        fill: #f07522;
      }

      .st2 {
        fill: #ffecd7;
      }

      .st3 {
        clip-path: url(#clippath);
      }
    </style>
    <clipPath id="clippath">
      <rect class="st0" x="-3" y="-9.86" width="66" height="37.71"/>
    </clipPath>
  </defs>
  <g class="st3">
    <path class="st2" d="M17.4,8.3c-.76.37-3.21,1.54-3.38,1.63l-3.39-7.99c-.54-1.26-2.54-1.31-3.33-.03-1.86,3.69-3.65,7.29-5.35,10.99-.48,1.04-1.24,2.19-.46,3.27.56.77,1.42,1.04,2.33.75,2.76-1.18,8.36-3.74,10.95-5.2l-.75-1.79L3.02,15.09,8.94,2.86c.15.13,3.55,8.73,5.36,12.74.11.23.28.68.42.86.65.82,2.07.75,2.55-.19.78-1.53,1.43-4.45,1.88-6.16.32-1.2-.2-2.55-1.74-1.8M15.89,14.3c-.4-.87-.77-1.72-1.11-2.58.21-.09,1.94-.95,2.14-1.04l-1.03,3.62Z"/>
    <path class="st1" d="M16.92,10.68l-1.03,3.62c-.4-.87-.77-1.72-1.11-2.58.21-.09,1.94-.95,2.14-1.04"/>
  </g>
</svg>